<mxfile host="app.diagrams.net" modified="2024-05-26T15:09:18.334Z" agent="Mozilla/5.0 (Windows NT 10.0; Win64; x64; rv:126.0) Gecko/20100101 Firefox/126.0" version="24.4.8" etag="lUR52GdIfJKzkh1QGYvM" type="github">
  <diagram name="第 1 页" id="8q1T2Jgx8tbPde1aXk0S">
    <mxGraphModel>
      <root>
        <mxCell id="0" />
        <mxCell id="1" parent="0" />
      </root>
    </mxGraphModel>
  </diagram>
</mxfile>
